<?xml version="1.0" encoding="UTF-8"?>
<svg id="_레이어_1" data-name="레이어 1" xmlns="http://www.w3.org/2000/svg" viewBox="0 0 303.98 76.26">
  <defs>
    <style>
      .cls-1 {
        letter-spacing: .08em;
      }

      .cls-2 {
        fill: #fff;
        font-family: Calibri-BoldItalic, Calibri;
        font-size: 67.96px;
        font-style: italic;
        font-weight: 700;
      }

      .cls-3 {
        fill: #376ab3;
        stroke-width: 0px;
      }

      .cls-4 {
        letter-spacing: .07em;
      }

      .cls-5 {
        letter-spacing: -.26em;
      }

      .cls-6 {
        letter-spacing: -.14em;
      }

      .cls-7 {
        letter-spacing: .08em;
      }
    </style>
  </defs>
  <g>
    <circle class="cls-3" cx="44.2" cy="35.16" r="5.96"/>
    <path class="cls-3" d="M73.12,29.71c-.45,0-.89.06-1.32.15-3.89-.45-7-3.43-7.67-7.25.15-.53.24-1.08.24-1.65,0-3.29-2.67-5.96-5.96-5.96s-5.96,2.67-5.96,5.96,2.67,5.96,5.96,5.96c.61,0,1.19-.09,1.74-.26,3.67.47,6.63,3.19,7.46,6.74-.29.7-.45,1.47-.45,2.27,0,.72.14,1.42.37,2.06-.86,3.17-3.43,5.63-6.66,6.32-.75-.34-1.58-.54-2.46-.54-3.29,0-5.96,2.67-5.96,5.96s2.67,5.96,5.96,5.96,5.96-2.67,5.96-5.96c0-.23-.02-.47-.04-.69.34-3.67,2.93-6.69,6.37-7.67.74.33,1.56.52,2.42.52,3.29,0,5.96-2.67,5.96-5.96s-2.67-5.96-5.96-5.96Z"/>
  </g>
  <text class="cls-2" transform="translate(0 55.45)"><tspan class="cls-7" x="0" y="0" xml:space="preserve">P  </tspan><tspan class="cls-5" x="83.21" y="0"> </tspan><tspan class="cls-1" x="80.9" y="0">i</tspan><tspan class="cls-4" x="103.03" y="0">n</tspan><tspan class="cls-1" x="143.68" y="0">t</tspan><tspan class="cls-6" x="172.67" y="0"> </tspan><tspan class="cls-7" x="178.52" y="0">Hub</tspan></text>
</svg>